<svg width="16" height="8" viewBox="0 0 16 8" fill="none" xmlns="http://www.w3.org/2000/svg">
<path d="M15.0312 5.80452C14.967 5.84115 14.8962 5.86476 14.8228 5.87399C14.7494 5.88321 14.6749 5.87788 14.6036 5.85828C14.5323 5.83869 14.4655 5.80523 14.4072 5.75981C14.3488 5.71438 14.2999 5.6579 14.2634 5.59358L12.9275 3.2592C12.1508 3.78435 11.2941 4.17997 10.3906 4.43061L10.8034 6.90702C10.8155 6.97992 10.8132 7.05451 10.7966 7.12652C10.7799 7.19853 10.7492 7.26655 10.7062 7.32669C10.6633 7.38683 10.6089 7.43791 10.5462 7.47702C10.4834 7.51612 10.4136 7.54249 10.3407 7.55459C10.3107 7.5595 10.2804 7.56209 10.25 7.56233C10.1169 7.56213 9.98824 7.51476 9.88679 7.42864C9.78535 7.34251 9.71773 7.22321 9.69594 7.09194L9.29023 4.66053C8.43467 4.77959 7.56674 4.77959 6.71117 4.66053L6.30547 7.09194C6.28364 7.22345 6.21581 7.34294 6.11407 7.42909C6.01234 7.51524 5.88331 7.56246 5.75 7.56233C5.71891 7.5622 5.68787 7.55961 5.65719 7.55459C5.58427 7.54249 5.51446 7.51612 5.45174 7.47702C5.38902 7.43791 5.33462 7.38683 5.29165 7.32669C5.24868 7.26655 5.21799 7.19853 5.20133 7.12652C5.18466 7.05451 5.18235 6.97992 5.19453 6.90702L5.60937 4.43061C4.7063 4.17917 3.85002 3.78285 3.0739 3.2571L1.74219 5.59358C1.70525 5.65794 1.656 5.71439 1.59725 5.75972C1.5385 5.80504 1.4714 5.83835 1.39977 5.85774C1.32815 5.87713 1.2534 5.88223 1.17981 5.87273C1.10622 5.86324 1.03522 5.83934 0.970858 5.80241C0.9065 5.76547 0.850047 5.71622 0.804722 5.65747C0.759397 5.59872 0.726088 5.53162 0.706697 5.45999C0.687305 5.38837 0.682211 5.31363 0.691705 5.24003C0.701199 5.16644 0.725095 5.09544 0.76203 5.03108L2.16828 2.57014C1.67433 2.1434 1.22013 1.67272 0.811249 1.16389C0.760257 1.10696 0.721403 1.04023 0.697058 0.967783C0.672713 0.895334 0.663387 0.818683 0.669651 0.742511C0.675915 0.666338 0.697636 0.592241 0.733489 0.524743C0.769342 0.457244 0.818575 0.39776 0.878181 0.349921C0.937788 0.302083 1.00652 0.266893 1.08018 0.246501C1.15384 0.226109 1.23088 0.220941 1.3066 0.231314C1.38232 0.241688 1.45514 0.267384 1.5206 0.306834C1.58606 0.346284 1.6428 0.398661 1.68734 0.460767C2.85453 1.90499 4.8964 3.62483 8 3.62483C11.1036 3.62483 13.1455 1.90288 14.3127 0.460767C14.3567 0.397389 14.4133 0.343752 14.479 0.303191C14.5446 0.26263 14.6179 0.236014 14.6943 0.224998C14.7707 0.213982 14.8485 0.218803 14.923 0.239159C14.9974 0.259516 15.0669 0.294974 15.127 0.343326C15.1872 0.391679 15.2367 0.451891 15.2726 0.520218C15.3085 0.588546 15.3299 0.663525 15.3356 0.740492C15.3412 0.81746 15.331 0.894768 15.3055 0.967608C15.28 1.04045 15.2398 1.10726 15.1873 1.16389C14.7785 1.67272 14.3243 2.1434 13.8303 2.57014L15.2366 5.03108C15.2743 5.09523 15.299 5.16623 15.3091 5.23998C15.3192 5.31372 15.3145 5.38874 15.2954 5.46068C15.2763 5.53262 15.2432 5.60006 15.1978 5.65908C15.1525 5.7181 15.0958 5.76753 15.0312 5.80452Z" fill="white"/>
</svg>
